<?xml version="1.0" standalone="no"?>
<!DOCTYPE svg PUBLIC "-//W3C//DTD SVG 20010904//EN"
 "http://www.w3.org/TR/2001/REC-SVG-20010904/DTD/svg10.dtd">
<svg version="1.0" xmlns="http://www.w3.org/2000/svg"
 width="700.000000pt" height="700.000000pt" viewBox="0 0 700.000000 700.000000"
 preserveAspectRatio="xMidYMid meet">
<metadata>
Created by potrace 1.14, written by Peter Selinger 2001-2017
</metadata>
<g transform="translate(0.000000,700.000000) scale(0.100000,-0.100000)"
fill="#000000" stroke="none">
<path d="M3445 6763 c-170 -12 -318 -44 -460 -100 -487 -193 -826 -641 -880
-1163 -6 -60 -7 -249 -1 -280 2 -14 7 -44 10 -68 19 -150 105 -392 176 -502
10 -14 30 -45 46 -69 16 -24 24 -46 19 -48 -22 -7 -251 -160 -275 -184 -113
-109 -156 -274 -110 -423 24 -77 160 -289 223 -348 42 -39 144 -94 188 -102
29 -4 30 6 -19 -136 -67 -191 -82 -234 -91 -255 -5 -11 -28 -69 -52 -130 -104
-269 -269 -624 -363 -780 -19 -33 -40 -72 -46 -86 -7 -17 -27 -33 -53 -44
-113 -48 -295 -139 -360 -181 -175 -112 -304 -244 -375 -382 -82 -160 -84
-177 -85 -684 0 -392 0 -397 23 -440 30 -57 71 -93 127 -109 63 -17 4766 -18
4830 0 48 13 107 68 129 120 23 54 23 822 0 930 -37 173 -156 352 -316 474
-30 23 -57 45 -60 48 -23 28 -286 167 -397 210 -61 23 -63 25 -110 109 -26 46
-53 94 -59 105 -115 201 -309 652 -436 1010 -27 77 -56 157 -63 177 l-14 37
37 11 c69 21 142 62 185 105 52 50 171 228 204 304 62 139 25 334 -84 445 -36
37 -235 176 -252 176 -4 0 -15 8 -24 18 -15 17 -14 21 16 68 50 77 54 85 88
154 158 326 183 733 64 1069 -190 533 -680 908 -1225 937 -52 3 -99 6 -105 7
-5 1 -28 1 -50 0z"/>
</g>
</svg>
