<?xml version="1.0" encoding="UTF-8" standalone="no"?>
<!DOCTYPE svg PUBLIC "-//W3C//DTD SVG 1.1//EN" "http://www.w3.org/Graphics/SVG/1.1/DTD/svg11.dtd">
<svg width="100%" height="100%" viewBox="0 0 100 100" version="1.1" xmlns="http://www.w3.org/2000/svg" xmlns:xlink="http://www.w3.org/1999/xlink" xml:space="preserve" xmlns:serif="http://www.serif.com/" style="fill-rule:evenodd;clip-rule:evenodd;stroke-linejoin:round;stroke-miterlimit:2;">
    <path d="M38.97,10.606L38.973,10.605C39.228,10.534 39.483,10.466 39.737,10.4C40.823,8.764 41.862,6.772 43.221,5.159C44.668,3.441 46.428,2.101 48.678,1.519C48.682,1.518 48.687,1.517 48.691,1.516C49.989,1.187 51.364,1.399 52.502,2.104C53.519,2.734 54.269,3.708 54.619,4.84C55.408,6.435 56.809,8.289 57.946,10.126C81.044,15.57 96.647,43.026 79.98,73.332C83.513,75.616 86.605,79.03 86.605,83.555L86.605,93.607C86.605,95.264 85.262,96.607 83.605,96.607L16.395,96.607C14.738,96.607 13.395,95.264 13.395,93.607L13.395,83.555C13.395,80.505 14.716,77.967 16.71,75.929C19.023,73.564 22.293,71.921 24.811,70.919C27.794,63.912 32.488,58.888 37.198,54.684C33.202,56.383 29.377,57.179 26.502,56.999C24.864,56.896 23.972,56.352 22.237,56.318C20.905,56.291 20.073,56.907 18.114,58.277C17.034,59.032 15.742,59.229 14.285,58.611C13.118,58.116 11.522,56.625 10.099,54.525C8.422,52.05 6.805,48.749 6.065,46.417C5.597,44.945 5.486,43.715 5.595,42.973C5.66,42.523 5.469,42.31 5.443,42.082C5.371,41.478 5.402,40.868 5.661,40.14C5.865,39.57 6.268,38.811 7.244,37.764C8.594,36.315 11.553,33.761 17.877,28.629C21.782,25.461 22.972,22.476 24.134,20.131C25.273,17.834 26.458,16.008 28.65,14.684C30.918,13.316 34.96,11.506 38.97,10.606Z" style="fill:rgb(10,12,17);"/>
    <path d="M39.703,13.516C40.317,13.344 40.929,13.189 41.54,13.05C43.684,10.196 45.367,5.473 49.429,4.424C49.937,4.295 50.477,4.378 50.923,4.655C51.369,4.931 51.684,5.377 51.795,5.89C52.744,7.927 54.755,10.423 56.022,12.78C78.82,17.251 93.992,44.767 75.852,74.47C79.426,76.15 83.605,79.039 83.605,83.555L83.605,93.607L16.395,93.607L16.395,83.555C16.395,78.007 22.701,74.916 26.447,73.503C26.657,73.423 26.873,73.347 27.095,73.273C34.734,53.293 57.241,50.046 53.771,35.298C49.022,46.86 34.227,54.477 26.69,54.005C25.003,53.899 24.082,53.353 22.296,53.318C20.425,53.281 19.145,53.895 16.395,55.818C14.197,57.355 8.194,45.938 8.563,43.406C8.999,40.417 5.155,42.815 19.768,30.959C27.062,25.04 26.018,19.777 30.2,17.253C32.286,15.995 36.016,14.332 39.703,13.516Z" style="fill:rgb(62,67,81);"/>
    <path d="M15.939,55.96C15.939,55.96 17.686,54.172 19.343,52.492C20.913,50.884 23.251,50.291 25.398,50.955C28.493,51.927 32.37,52.144 37.285,51.358C33.342,53.227 29.508,54.181 26.69,54.005C25.003,53.899 24.082,53.353 22.296,53.318C20.425,53.281 19.145,53.895 16.395,55.818C16.277,55.901 16.148,55.946 16.01,55.957C15.987,55.959 15.963,55.959 15.939,55.96ZM75.852,74.47C75.035,74.086 74.25,73.765 73.553,73.503C69.715,72.055 63.763,71.555 57.87,71.385C73.556,56.896 84.231,39.736 75.547,24.422C85.273,36.119 87.855,54.815 75.852,74.47ZM53.771,35.298C53.883,35.025 53.99,34.749 54.091,34.471L57.417,26.113C57.417,26.113 61.97,31.475 60.228,37.268C58.375,43.435 51.805,49.354 41.962,54.525C49.294,48.368 55.747,43.7 53.771,35.298Z" style="fill:rgb(37,40,51);"/>
    <g transform="matrix(1,2.77556e-17,0,1,-2.9037,-8.3534)">
        <path d="M39.703,30.959C41.352,30.634 45.234,30.698 43.823,31.854C42.682,32.789 36.363,35.316 36.154,37.437C35.989,39.105 34.906,35.454 35.773,33.859C36.574,32.387 38.059,31.283 39.703,30.959Z" style="fill:rgb(10,12,17);"/>
    </g>
</svg>
