<?xml version="1.0" encoding="UTF-8" standalone="no"?>
<!DOCTYPE svg PUBLIC "-//W3C//DTD SVG 1.1//EN" "http://www.w3.org/Graphics/SVG/1.1/DTD/svg11.dtd">
<svg width="100%" height="100%" viewBox="0 0 100 100" version="1.1" xmlns="http://www.w3.org/2000/svg" xmlns:xlink="http://www.w3.org/1999/xlink" xml:space="preserve" xmlns:serif="http://www.serif.com/" style="fill-rule:evenodd;clip-rule:evenodd;stroke-linejoin:round;stroke-miterlimit:2;">
    <path d="M37.69,46.379C37.69,48.036 37.69,46.366 37.69,46.366C37.69,41.797 38.292,38.439 39.315,36.265C39.992,34.826 40.972,33.552 42.274,32.465C39.333,32.483 34.712,32.484 31.655,32.484C29.961,32.484 28.345,31.768 27.208,30.513C26.07,29.257 25.516,27.58 25.683,25.894C25.683,25.888 25.684,25.883 25.684,25.877C26.197,20.97 27.694,16.855 30.137,13.511C32.39,10.422 35.31,7.962 38.908,6.145C42.499,4.331 46.219,3.432 50.064,3.432C56.888,3.432 62.624,5.712 67.288,10.231C71.985,14.782 74.346,20.415 74.346,27.14C74.346,35.673 70.805,41.621 63.888,45.08C62.959,45.544 61.96,46.235 61.66,46.448C61.621,46.629 61.556,46.95 61.528,47.212C61.521,47.277 61.512,47.342 61.5,47.406C61.168,49.303 59.961,50.859 58.337,51.687C58.933,52.135 59.507,52.638 60.06,53.195C62.895,56.05 64.303,59.451 64.303,63.391C64.303,65.283 63.981,67.038 63.337,68.658C67.677,68.987 71.711,69.601 74.612,70.696C77.189,71.668 80.796,73.378 83.29,75.929C85.284,77.967 86.605,80.505 86.605,83.555L86.605,93.607C86.605,95.264 85.262,96.607 83.605,96.607L16.395,96.607C14.738,96.607 13.395,95.264 13.395,93.607L13.395,83.555C13.395,80.505 14.716,77.967 16.71,75.929C19.204,73.378 22.811,71.668 25.388,70.696C28.249,69.616 32.21,69.003 36.482,68.671C35.887,67.057 35.586,65.282 35.586,63.344C35.586,59.323 36.983,55.918 39.757,53.124C40.221,52.656 40.701,52.228 41.198,51.838C39.128,50.892 37.69,48.803 37.69,46.379ZM47.418,29.614L48.948,28.939C50.052,28.452 50.842,27.981 50.842,27.092C50.842,26.78 50.742,26.513 50.525,26.296C50.309,26.08 50.041,25.979 49.729,25.979C49.34,25.979 49.004,26.005 48.77,26.22C48.435,26.527 48.302,27.028 48.188,27.641C48.184,27.664 48.18,27.687 48.175,27.709C48.031,28.399 47.771,29.04 47.418,29.614Z" style="fill:rgb(10,12,17);"/>
    <path d="M41.714,71.397C39.629,69.285 38.586,66.6 38.586,63.344C38.586,60.155 39.686,57.453 41.886,55.237C44.086,53.021 46.748,51.913 49.873,51.913C52.997,51.913 55.684,53.045 57.931,55.309C60.179,57.573 61.303,60.267 61.303,63.391C61.303,66.516 60.187,69.17 57.955,71.354C57.944,71.365 57.934,71.376 57.923,71.386C63.798,71.558 69.726,72.059 73.553,73.503C77.299,74.916 83.605,78.007 83.605,83.555L83.605,93.607L16.395,93.607L16.395,83.555C16.395,78.007 22.701,74.916 26.447,73.503C30.195,72.089 35.958,71.579 41.714,71.397ZM58.545,46.889C58.297,48.304 57.069,49.336 55.632,49.336C52.377,49.379 47.028,49.379 43.69,49.379C42.034,49.379 40.69,48.036 40.69,46.379L40.69,46.366C40.69,42.38 41.137,39.439 42.03,37.542C42.922,35.645 44.548,34.17 46.908,33.118L50.16,31.683C52.615,30.599 53.842,29.069 53.842,27.092C53.842,25.944 53.444,24.972 52.647,24.175C51.85,23.378 50.877,22.979 49.729,22.979C47.244,22.979 45.747,24.351 45.239,27.095C44.949,28.476 43.732,29.465 42.321,29.465C39.388,29.484 34.73,29.484 31.654,29.484C30.807,29.484 30,29.126 29.431,28.498C28.862,27.87 28.585,27.032 28.668,26.189C29.12,21.864 30.407,18.227 32.56,15.279C34.537,12.569 37.104,10.417 40.26,8.823C43.416,7.229 46.685,6.432 50.064,6.432C56.058,6.432 61.104,8.417 65.201,12.386C69.298,16.356 71.346,21.274 71.346,27.14C71.346,34.378 68.413,39.463 62.547,42.396C60.634,43.353 59.47,44.182 59.055,44.883C58.817,45.287 58.647,45.956 58.545,46.889Z" style="fill:rgb(62,67,81);"/>
    <path d="M65.741,12.927C69.478,16.799 71.346,21.537 71.346,27.14C71.346,34.378 68.413,39.463 62.547,42.396C60.634,43.353 59.47,44.182 59.055,44.883C58.817,45.287 58.647,45.956 58.545,46.889C58.297,48.304 57.069,49.336 55.632,49.336C52.381,49.379 47.039,49.379 43.701,49.379L43.69,49.379C42.896,49.376 42.134,49.059 41.572,48.497C41.204,48.129 40.941,47.675 40.803,47.182C41.191,47.359 41.616,47.453 42.05,47.453C45.119,47.453 49.882,47.453 53.157,47.387C54.959,47.387 56.53,46.161 56.967,44.413C57.07,43.762 57.216,43.277 57.404,42.957C57.819,42.256 58.983,41.427 60.896,40.47C66.762,37.537 69.696,32.452 69.696,25.214C69.696,20.508 68.377,16.412 65.741,12.927ZM51.89,23.57C51.257,23.176 50.536,22.979 49.729,22.979C47.414,22.979 45.957,24.169 45.357,26.55C45.352,26.57 45.347,26.591 45.342,26.612C45.304,26.768 45.269,26.929 45.239,27.095C44.949,28.476 43.732,29.465 42.321,29.465C42.094,29.466 41.858,29.467 41.612,29.469C41.583,29.468 41.553,29.467 41.525,29.467C40.788,29.472 39.975,29.475 39.127,29.477C37.015,29.483 34.681,29.483 32.744,29.483C32.364,29.484 31.999,29.484 31.654,29.484C30.807,29.484 30,29.126 29.431,28.498C29.017,28.042 28.758,27.474 28.679,26.873C29.297,27.234 30.373,27.558 31.093,27.558C33.809,27.558 37.304,27.558 39.874,27.541C41.662,27.541 43.23,26.347 43.706,24.624C44.306,22.243 45.764,21.053 48.079,21.053C49.226,21.053 50.199,21.452 50.996,22.249C51.393,22.646 51.691,23.086 51.89,23.57ZM57.702,55.084C57.779,55.157 57.855,55.233 57.931,55.309C60.179,57.573 61.303,60.267 61.303,63.391C61.303,66.516 60.187,69.17 57.955,71.354C57.944,71.365 57.934,71.376 57.923,71.386C56.539,71.346 55.158,71.323 53.808,71.311C54.696,70.816 55.528,70.188 56.304,69.428C58.536,67.244 59.652,64.59 59.652,61.466C59.652,59.089 59.002,56.962 57.702,55.084Z" style="fill:rgb(37,40,51);"/>
</svg>
