<?xml version="1.0" encoding="UTF-8" standalone="no"?>
<!DOCTYPE svg PUBLIC "-//W3C//DTD SVG 1.1//EN" "http://www.w3.org/Graphics/SVG/1.1/DTD/svg11.dtd">
<svg width="100%" height="100%" viewBox="0 0 1386 318" version="1.1" xmlns="http://www.w3.org/2000/svg" xmlns:xlink="http://www.w3.org/1999/xlink" xml:space="preserve" xmlns:serif="http://www.serif.com/" style="fill-rule:evenodd;clip-rule:evenodd;stroke-linejoin:round;stroke-miterlimit:2;">
    <path d="M676.097,240.722L596.6,240.722L596.6,233.398C595.31,234.093 593.984,234.754 592.622,235.381C582.639,239.976 571.341,242.424 558.665,242.424C545.988,242.424 534.69,239.976 524.707,235.381C517.558,232.09 511.415,227.858 506.24,222.733C501.065,227.858 494.923,232.09 487.773,235.381C477.79,239.976 466.492,242.424 453.816,242.424C441.139,242.424 429.841,239.976 419.858,235.381C416.571,233.868 413.496,232.155 410.63,230.249L406.17,233.107L403.835,234.372C399.803,236.556 395.238,238.44 390.114,239.952C385.098,241.432 378.096,242.424 369.051,242.424C356.18,242.424 344.754,239.99 334.708,235.438C331.364,233.923 328.239,232.206 325.328,230.294L320.555,233.107L318.22,234.372C314.187,236.556 309.623,238.44 304.498,239.952C299.483,241.432 292.481,242.424 283.436,242.424C270.565,242.424 259.138,239.99 249.093,235.438C247.566,234.746 246.086,234.013 244.65,233.238L244.65,240.722L2.228,240.722L2.228,75.576L85.674,75.576L85.674,75.992C96.86,76.934 106.249,79.439 113.914,83.122C125.881,88.874 134.487,96.989 140.147,107.009C142.437,111.064 144.268,115.369 145.611,119.932C148.472,119.043 151.461,118.185 154.579,117.361C163.32,115.049 172.456,113.873 181.991,113.873C192.088,113.873 201.239,115.362 209.472,118.158C219.061,121.415 226.636,126.294 232.454,132.391C237.236,128.147 242.772,124.574 249.093,121.71C259.138,117.158 270.565,114.724 283.436,114.724C292.481,114.724 299.483,115.716 304.498,117.196C309.109,118.557 313.22,120.089 316.848,121.751L321.935,124.083L324.956,127.093C327.971,125.087 331.22,123.291 334.708,121.71C344.754,117.158 356.18,114.724 369.051,114.724C378.096,114.724 385.098,115.716 390.114,117.196C394.724,118.557 398.836,120.089 402.464,121.751L407.55,124.083L410.278,126.965C413.244,124.964 416.436,123.172 419.858,121.597C429.841,117.002 441.139,114.554 453.816,114.554C466.492,114.554 477.79,117.002 487.773,121.597C494.923,124.888 501.065,129.12 506.24,134.245C511.415,129.12 517.558,124.888 524.707,121.597C534.69,117.002 545.988,114.554 558.665,114.554C571.341,114.554 582.639,117.002 592.622,121.597C593.984,122.224 595.31,122.885 596.6,123.58L596.6,116.426L661.973,116.426C666.466,115.218 671.452,114.554 676.96,114.554C695.463,114.554 707.963,120.546 715.744,129.049C715.786,128.83 715.83,128.611 715.876,128.392C717.537,120.559 722.053,113.647 728.508,108.981C724.096,99.413 721.634,88.763 721.634,77.544C721.634,36.046 755.325,2.355 796.823,2.355C838.321,2.355 872.012,36.046 872.012,77.544C872.012,88.763 869.55,99.413 865.138,108.981C866.122,109.692 867.061,110.456 867.951,111.267C870.75,107.596 873.866,104.177 877.295,101.006C885.553,93.372 895.477,87.448 907.162,83.397C917.946,79.659 929.866,77.703 942.951,77.703C955.139,77.703 965.024,79.514 972.701,82.522C973.565,82.86 974.421,83.209 975.269,83.569L975.269,67.491L1054.46,67.491L1054.46,118.393C1054.85,118.387 1055.24,118.383 1055.63,118.383C1067.9,118.383 1077.18,121.068 1083.8,124.963C1088.42,127.678 1092.3,131.035 1095.44,135.049C1099.26,132.023 1103.54,129.404 1108.32,127.209C1118.02,122.751 1129.69,120.256 1143.46,120.256C1157.06,120.256 1168.45,122.614 1177.75,126.756C1183.36,129.252 1188.26,132.361 1192.49,136.048C1197.11,131.215 1202.95,127.299 1210.16,124.519C1217.2,121.804 1225.53,120.256 1235.2,120.256C1241.65,120.256 1247.64,120.864 1253.17,122.016C1258.27,123.078 1263.23,124.462 1268.05,126.163C1272.3,127.663 1276.55,129.395 1280.81,131.361C1284.39,128.636 1288.51,126.335 1293.22,124.519C1300.27,121.804 1308.59,120.256 1318.26,120.256C1324.71,120.256 1330.7,120.864 1336.23,122.016C1341.33,123.078 1346.29,124.462 1351.11,126.163C1355.68,127.776 1360.25,129.655 1364.82,131.806L1383.77,140.724L1371.74,174.055C1372.27,174.728 1372.77,175.416 1373.26,176.12C1377.58,182.358 1380.41,190.571 1380.41,201.127C1380.41,219.091 1373.81,231.466 1363.52,239.462C1354.87,246.177 1342.64,250.509 1326.26,250.509C1318.88,250.509 1311.93,249.886 1305.4,248.68C1298.79,247.457 1292.46,245.687 1286.41,243.386C1284.01,242.468 1281.6,241.477 1279.19,240.411C1270.63,246.583 1258.79,250.509 1243.2,250.509C1235.82,250.509 1228.87,249.886 1222.34,248.68C1215.72,247.457 1209.39,245.687 1203.35,243.386C1198.17,241.412 1192.99,239.098 1187.81,236.439C1186.52,237.282 1185.2,238.08 1183.84,238.835C1173.36,244.676 1160.52,247.956 1145.16,247.956C1131.27,247.956 1119.39,245.474 1109.43,240.997C1108.09,240.395 1106.79,239.761 1105.52,239.096L1105.52,246.254L975.269,246.254L975.269,243.691C974.483,244.028 973.691,244.358 972.892,244.679C965.165,247.786 955.218,249.658 942.951,249.658C935.046,249.658 927.566,248.944 920.505,247.555C922.001,251.996 922.817,256.76 922.817,261.838L922.817,315.645L670.829,315.645L670.829,261.838C670.829,254.05 672.748,247.002 676.097,240.722Z" style="fill:rgb(41,41,41);"/>
    <g transform="matrix(3.06479,0,0,3.06479,643.584,5.76073)">
        <g transform="matrix(0.326287,0,0,0.326287,-209.993,-1.87965)">
            <path d="M727.775,229.96C746.68,201.546 761.5,151.265 761.5,151.265L748.641,151.265C747.632,151.265 746.69,150.758 746.135,149.915L736.244,134.893C735.803,134.223 735.648,133.405 735.815,132.621C735.981,131.836 736.455,131.151 737.129,130.718L760.948,115.433C750.903,105.919 744.634,92.457 744.634,77.544C744.634,48.74 768.019,25.355 796.823,25.355C825.627,25.355 849.012,48.74 849.012,77.544C849.012,92.457 842.743,105.919 832.698,115.433L856.517,130.718C857.192,131.151 857.665,131.836 857.831,132.621C857.998,133.405 857.843,134.223 857.402,134.893L847.511,149.915C846.956,150.758 846.014,151.265 845.005,151.265L832.146,151.265C832.146,151.265 846.966,201.546 865.871,229.96C866.961,230.297 868.009,230.653 869.009,231.031C880.489,235.361 899.817,244.835 899.817,261.838L899.817,292.645L693.829,292.645L693.829,261.838C693.829,244.835 713.157,235.361 724.637,231.031C725.637,230.653 726.685,230.297 727.775,229.96Z" style="fill:rgb(236,238,242);"/>
        </g>
        <g transform="matrix(0.326287,0,0,0.326287,-209.993,-1.87965)">
            <path d="M792.848,25.504C794.16,25.405 795.486,25.355 796.823,25.355C825.627,25.355 849.012,48.74 849.012,77.544C849.012,92.457 842.743,105.919 832.698,115.433C823.343,124.294 810.713,129.732 796.823,129.732C782.933,129.732 770.303,124.294 760.948,115.433C750.903,105.919 744.634,92.457 744.634,77.544C744.634,76.206 744.685,74.881 744.784,73.568C746.279,91.864 758.852,107.045 775.775,112.385C780.005,113.72 784.508,114.439 789.177,114.439C793.845,114.439 798.348,113.72 802.578,112.385C820.621,106.691 833.719,89.812 833.719,69.897C833.719,46.55 815.717,27.373 792.848,25.504ZM865.678,229.901C855.489,226.791 841.619,225.396 827.368,224.771C814.77,189.664 789.201,163.875 761.5,151.265L804.103,151.265C821.046,145.258 838.641,137.405 841.296,120.951L856.517,130.718C857.192,131.151 857.665,131.836 857.831,132.621C857.998,133.405 857.843,134.223 857.402,134.893L847.511,149.915C846.956,150.758 846.014,151.265 845.005,151.265L832.146,151.265C832.146,151.265 832.791,153.451 833.982,157.17C838.485,171.224 850.802,207.161 865.678,229.67L865.678,229.901Z" style="fill:rgb(180,183,193);"/>
        </g>
    </g>
    <g transform="matrix(0.378805,0,0,0.378805,-124.18,-50.8841)">
        <path d="M486.534,574.288L562.921,709.088L677.5,709.088L587.634,574.288L486.534,574.288ZM394.421,394.556L394.421,709.088L493.274,709.088L493.274,394.556L394.421,394.556ZM458.226,477.682L517.988,477.682C526.375,477.682 533.265,478.805 538.657,481.052C544.049,483.299 548.168,486.594 551.013,490.937C553.859,495.281 555.282,500.598 555.282,506.889C555.282,512.88 553.859,518.122 551.013,522.615C548.168,527.108 544.049,530.478 538.657,532.725C533.265,534.972 526.375,536.095 517.988,536.095L458.226,536.095L458.226,610.235L526.974,610.235C557.828,610.235 582.916,605.592 602.237,596.306C621.559,587.019 635.787,574.213 644.924,557.888C654.06,541.562 658.628,523.064 658.628,502.395C658.628,481.426 654.06,462.854 644.924,446.678C635.787,430.502 621.559,417.771 602.237,408.485C582.916,399.199 557.828,394.556 526.974,394.556L458.226,394.556L458.226,477.682Z" style="fill:rgb(246,248,250);fill-rule:nonzero;"/>
        <path d="M774.556,643.935C774.556,640.34 775.305,637.42 776.803,635.173C778.301,632.926 780.772,631.204 784.217,630.006C787.662,628.807 792.23,628.208 797.921,628.208C806.908,628.208 815.67,629.556 824.207,632.252C832.745,634.948 839.56,638.543 844.652,643.036L844.652,607.539C840.159,602.746 833.943,598.777 826.005,595.632C818.066,592.486 809.08,590.015 799.045,588.218C789.01,586.42 778.6,585.522 767.816,585.522C741.455,585.522 721.31,591.138 707.381,602.372C693.452,613.605 686.487,629.107 686.487,648.877C686.487,662.957 689.932,674.864 696.822,684.599C703.711,694.335 712.848,701.599 724.231,706.392C735.614,711.185 748.046,713.581 761.525,713.581C775.904,713.581 788.785,711.11 800.168,706.167C811.551,701.225 820.538,694.035 827.128,684.599C833.718,675.163 837.013,663.855 837.013,650.675L829.824,623.715C829.824,632.702 828.102,639.966 824.657,645.507C821.212,651.049 816.868,655.093 811.626,657.639C806.384,660.186 800.917,661.459 795.225,661.459C791.631,661.459 788.261,660.785 785.115,659.437C781.97,658.089 779.424,656.142 777.477,653.595C775.53,651.049 774.556,647.829 774.556,643.935ZM729.174,575.187C731.87,573.689 736.812,571.667 744.002,569.121C751.191,566.575 759.429,564.328 768.715,562.381C778.001,560.434 786.838,559.46 795.225,559.46C801.516,559.46 806.908,560.134 811.401,561.482C815.895,562.83 819.489,564.777 822.185,567.324C824.881,569.87 826.828,572.791 828.027,576.086C829.225,579.381 829.824,582.975 829.824,586.87L829.824,709.088L912.95,709.088L912.95,565.302C912.95,550.324 908.307,537.668 899.021,527.333C889.735,516.999 877.154,509.135 861.277,503.743C845.401,498.351 827.727,495.655 808.256,495.655C788.485,495.655 769.539,498.052 751.416,502.845C733.292,507.637 717.042,512.88 702.663,518.571L729.174,575.187Z" style="fill:rgb(246,248,250);fill-rule:nonzero;"/>
        <path d="M1039.21,605.742C1039.21,597.953 1041.31,590.989 1045.5,584.848C1049.7,578.707 1055.31,573.764 1062.35,570.02C1069.39,566.275 1076.96,564.403 1085.05,564.403C1090.14,564.403 1095.98,565.227 1102.57,566.874C1109.16,568.522 1115.75,571.218 1122.34,574.962C1128.93,578.707 1134.47,583.874 1138.96,590.464L1138.96,510.933C1131.78,507.637 1123.61,504.642 1114.48,501.946C1105.34,499.25 1092.53,497.902 1076.06,497.902C1051.49,497.902 1029.63,502.245 1010.46,510.933C991.284,519.62 976.231,531.976 965.298,548.002C954.364,564.029 948.897,583.275 948.897,605.742C948.897,627.909 954.364,647.08 965.298,663.256C976.231,679.432 991.284,691.864 1010.46,700.551C1029.63,709.238 1051.49,713.581 1076.06,713.581C1092.53,713.581 1105.34,712.233 1114.48,709.537C1123.61,706.841 1131.78,703.546 1138.96,699.652L1138.96,620.57C1134.47,626.86 1129.23,631.953 1123.24,635.847C1117.25,639.741 1111.03,642.587 1104.59,644.384C1098.15,646.181 1091.63,647.08 1085.05,647.08C1076.96,647.08 1069.39,645.507 1062.35,642.362C1055.31,639.217 1049.7,634.574 1045.5,628.433C1041.31,622.292 1039.21,614.728 1039.21,605.742Z" style="fill:rgb(246,248,250);fill-rule:nonzero;"/>
        <path d="M1265.23,605.742C1265.23,597.953 1267.32,590.989 1271.52,584.848C1275.71,578.707 1281.33,573.764 1288.37,570.02C1295.41,566.275 1302.97,564.403 1311.06,564.403C1316.15,564.403 1321.99,565.227 1328.58,566.874C1335.17,568.522 1341.76,571.218 1348.35,574.962C1354.94,578.707 1360.49,583.874 1364.98,590.464L1364.98,510.933C1357.79,507.637 1349.63,504.642 1340.49,501.946C1331.35,499.25 1318.55,497.902 1302.07,497.902C1277.51,497.902 1255.64,502.245 1236.47,510.933C1217.3,519.62 1202.25,531.976 1191.31,548.002C1180.38,564.029 1174.91,583.275 1174.91,605.742C1174.91,627.909 1180.38,647.08 1191.31,663.256C1202.25,679.432 1217.3,691.864 1236.47,700.551C1255.64,709.238 1277.51,713.581 1302.07,713.581C1318.55,713.581 1331.35,712.233 1340.49,709.537C1349.63,706.841 1357.79,703.546 1364.98,699.652L1364.98,620.57C1360.49,626.86 1355.24,631.953 1349.25,635.847C1343.26,639.741 1337.05,642.587 1330.61,644.384C1324.16,646.181 1317.65,647.08 1311.06,647.08C1302.97,647.08 1295.41,645.507 1288.37,642.362C1281.33,639.217 1275.71,634.574 1271.52,628.433C1267.32,622.292 1265.23,614.728 1265.23,605.742Z" style="fill:rgb(246,248,250);fill-rule:nonzero;"/>
        <path d="M1400.92,605.742C1400.92,627.909 1406.32,647.08 1417.1,663.256C1427.88,679.432 1442.71,691.864 1461.59,700.551C1480.46,709.238 1501.88,713.581 1525.84,713.581C1549.8,713.581 1571.22,709.238 1590.09,700.551C1608.97,691.864 1623.79,679.432 1634.58,663.256C1645.36,647.08 1650.75,627.909 1650.75,605.742C1650.75,583.275 1645.36,563.954 1634.58,547.778C1623.79,531.602 1608.97,519.17 1590.09,510.483C1571.22,501.796 1549.8,497.453 1525.84,497.453C1501.88,497.453 1480.46,501.796 1461.59,510.483C1442.71,519.17 1427.88,531.602 1417.1,547.778C1406.32,563.954 1400.92,583.275 1400.92,605.742ZM1491.24,605.742C1491.24,597.354 1492.89,590.315 1496.18,584.623C1499.48,578.931 1503.75,574.588 1508.99,571.592C1514.23,568.597 1519.85,567.099 1525.84,567.099C1531.83,567.099 1537.45,568.597 1542.69,571.592C1547.93,574.588 1552.2,578.931 1555.5,584.623C1558.79,590.315 1560.44,597.354 1560.44,605.742C1560.44,614.129 1558.79,621.169 1555.5,626.86C1552.2,632.552 1547.93,636.82 1542.69,639.666C1537.45,642.512 1531.83,643.935 1525.84,643.935C1519.85,643.935 1514.23,642.512 1508.99,639.666C1503.75,636.82 1499.48,632.552 1496.18,626.86C1492.89,621.169 1491.24,614.129 1491.24,605.742Z" style="fill:rgb(246,248,250);fill-rule:nonzero;"/>
        <path d="M1677.71,605.742C1677.71,627.909 1683.11,647.08 1693.89,663.256C1704.67,679.432 1719.5,691.864 1738.37,700.551C1757.25,709.238 1778.66,713.581 1802.63,713.581C1826.59,713.581 1848.01,709.238 1866.88,700.551C1885.75,691.864 1900.58,679.432 1911.37,663.256C1922.15,647.08 1927.54,627.909 1927.54,605.742C1927.54,583.275 1922.15,563.954 1911.37,547.778C1900.58,531.602 1885.75,519.17 1866.88,510.483C1848.01,501.796 1826.59,497.453 1802.63,497.453C1778.66,497.453 1757.25,501.796 1738.37,510.483C1719.5,519.17 1704.67,531.602 1693.89,547.778C1683.11,563.954 1677.71,583.275 1677.71,605.742ZM1768.03,605.742C1768.03,597.354 1769.68,590.315 1772.97,584.623C1776.27,578.931 1780.54,574.588 1785.78,571.592C1791.02,568.597 1796.64,567.099 1802.63,567.099C1808.62,567.099 1814.24,568.597 1819.48,571.592C1824.72,574.588 1828.99,578.931 1832.28,584.623C1835.58,590.315 1837.23,597.354 1837.23,605.742C1837.23,614.129 1835.58,621.169 1832.28,626.86C1828.99,632.552 1824.72,636.82 1819.48,639.666C1814.24,642.512 1808.62,643.935 1802.63,643.935C1796.64,643.935 1791.02,642.512 1785.78,639.666C1780.54,636.82 1776.27,632.552 1772.97,626.86C1769.68,621.169 1768.03,614.129 1768.03,605.742Z" style="fill:rgb(246,248,250);fill-rule:nonzero;"/>
        <path d="M2098.29,583.275L2098.29,709.088L2190.4,709.088L2190.4,574.288C2190.4,549.725 2184.86,530.778 2173.78,517.448C2162.69,504.118 2143.07,497.453 2114.91,497.453C2098.74,497.453 2085.48,500.673 2075.15,507.113C2064.81,513.554 2056.8,522.016 2051.11,532.5L2051.11,502.395L1963.49,502.395L1963.49,709.088L2051.11,709.088L2051.11,583.275C2051.11,576.385 2052.16,570.769 2054.25,566.425C2056.35,562.081 2059.35,558.861 2063.24,556.764C2067.14,554.668 2071.63,553.619 2076.72,553.619C2085.71,553.619 2091.55,556.24 2094.24,561.482C2096.94,566.725 2098.29,573.989 2098.29,583.275Z" style="fill:rgb(246,248,250);fill-rule:nonzero;"/>
    </g>
    <g transform="matrix(0.378805,0,0,0.378805,733.096,-45.3522)">
        <path d="M485.186,551.822C485.186,535.646 488.856,522.091 496.195,511.157C503.534,500.223 513.27,492.061 525.401,486.669C537.533,481.277 550.939,478.581 565.617,478.581C580.594,478.581 593.475,480.453 604.259,484.197C615.043,487.942 624.554,492.809 632.792,498.801C641.03,504.792 648.444,510.933 655.034,517.223L655.034,415.674C642.752,406.987 629.347,399.798 614.819,394.106C600.29,388.415 581.493,385.569 558.427,385.569C531.168,385.569 506.305,389.463 483.838,397.252C461.372,405.04 442.2,416.273 426.324,430.951C410.447,445.63 398.166,463.154 389.479,483.523C380.791,503.893 376.448,526.659 376.448,551.822C376.448,576.984 380.791,599.75 389.479,620.12C398.166,640.49 410.447,658.014 426.324,672.692C442.2,687.37 461.372,698.604 483.838,706.392C506.305,714.18 531.168,718.075 558.427,718.075C581.493,718.075 600.29,715.154 614.819,709.313C629.347,703.471 642.752,696.357 655.034,687.969L655.034,586.42C648.444,592.711 641.03,598.777 632.792,604.618C624.554,610.46 615.043,615.327 604.259,619.222C593.475,623.116 580.594,625.063 565.617,625.063C550.939,625.063 537.533,622.367 525.401,616.975C513.27,611.583 503.534,603.42 496.195,592.486C488.856,581.553 485.186,567.998 485.186,551.822Z" style="fill:rgb(246,248,250);fill-rule:nonzero;"/>
        <path d="M792.08,358.609L704.46,358.609L704.46,709.088L792.08,709.088L792.08,358.609ZM839.26,583.275L839.26,709.088L926.88,709.088L926.88,569.795C926.88,553.32 924.858,539.39 920.814,528.007C916.77,516.624 909.655,507.937 899.47,501.946C889.286,495.955 874.757,492.959 855.885,492.959C837.313,492.959 822.485,497.078 811.401,505.316C800.318,513.554 792.38,524.487 787.587,538.117C782.794,551.747 780.397,566.799 780.397,583.275L792.08,583.275C792.08,576.385 793.129,570.769 795.225,566.425C797.322,562.081 800.318,558.861 804.212,556.764C808.106,554.668 812.6,553.619 817.692,553.619C826.679,553.619 832.52,556.24 835.216,561.482C837.912,566.725 839.26,573.989 839.26,583.275Z" style="fill:rgb(246,248,250);fill-rule:nonzero;"/>
        <path d="M1092.23,713.581C1120.99,713.581 1145.18,708.114 1164.8,697.181C1184.42,686.247 1199.77,669.697 1210.86,647.529L1130.88,634.948C1127.28,641.538 1121.89,646.556 1114.7,650.001C1107.51,653.446 1098.53,655.168 1087.74,655.168C1079.65,655.168 1072.84,653.221 1067.3,649.327C1061.75,645.433 1057.56,639.816 1054.71,632.477C1051.87,625.138 1050.6,616.226 1050.89,605.742C1050.89,593.16 1052.09,582.901 1054.49,574.962C1056.89,567.024 1060.63,561.183 1065.72,557.438C1070.82,553.694 1077.41,551.822 1085.49,551.822C1091.49,551.822 1096.65,553.17 1101,555.866C1105.34,558.562 1108.71,562.456 1111.11,567.548C1113.5,572.641 1114.7,578.782 1114.7,585.971C1114.7,588.068 1114.1,590.614 1112.9,593.61C1111.7,596.605 1110.21,599.451 1108.41,602.147L1125.48,581.478L1010.46,581.478L1010.46,623.715L1206.81,623.715C1207.41,620.42 1207.71,616.9 1207.71,613.156L1207.71,601.698C1207.71,579.231 1203.14,560.284 1194.01,544.857C1184.87,529.43 1171.39,517.747 1153.57,509.809C1135.74,501.871 1113.8,497.902 1087.74,497.902C1061.38,497.902 1038.91,502.171 1020.34,510.708C1001.77,519.245 987.54,531.527 977.654,547.553C967.769,563.579 962.826,582.975 962.826,605.742C962.826,628.208 967.994,647.455 978.328,663.481C988.663,679.507 1003.49,691.864 1022.81,700.551C1042.13,709.238 1065.27,713.581 1092.23,713.581Z" style="fill:rgb(246,248,250);fill-rule:nonzero;"/>
        <path d="M1258.04,626.86L1229.73,688.419C1242.31,695.009 1254.89,700.7 1267.47,705.493C1280.06,710.286 1293.24,713.956 1307.02,716.502C1320.79,719.048 1335.47,720.321 1351.05,720.321C1377.71,720.321 1398.08,714.854 1412.16,703.921C1426.24,692.987 1433.28,675.238 1433.28,650.675C1433.28,637.494 1430.58,627.01 1425.19,619.222C1419.8,611.433 1412.76,605.142 1404.07,600.35C1395.38,595.557 1386.1,591.363 1376.21,587.768C1364.23,583.275 1354.57,579.98 1347.23,577.883C1339.89,575.786 1334.5,573.614 1331.05,571.368C1327.61,569.121 1325.89,566.051 1325.89,562.156C1325.89,560.06 1326.79,558.112 1328.58,556.315C1330.38,554.518 1333.98,553.619 1339.37,553.619C1347.75,553.619 1358.31,556.24 1371.04,561.482C1383.78,566.725 1395.23,573.689 1405.42,582.376L1426.99,522.615C1416.8,517.822 1406.62,513.629 1396.43,510.034C1386.25,506.439 1375.76,503.519 1364.98,501.272C1354.19,499.025 1342.51,497.902 1329.93,497.902C1312.86,497.902 1298.1,500.298 1285.67,505.091C1273.24,509.884 1263.58,516.849 1256.69,525.985C1249.8,535.122 1246.36,546.13 1246.36,559.011C1246.36,572.791 1249.05,584.024 1254.44,592.711C1259.84,601.398 1266.95,608.213 1275.79,613.156C1284.62,618.098 1294.13,622.217 1304.32,625.512C1317.2,629.406 1326.63,632.627 1332.63,635.173C1338.62,637.719 1342.44,640.041 1344.09,642.137C1345.73,644.234 1346.56,646.631 1346.56,649.327C1346.56,652.322 1345.58,654.794 1343.63,656.741C1341.69,658.688 1338.32,659.661 1333.53,659.661C1331.13,659.661 1326.71,659.062 1320.27,657.864C1313.83,656.666 1305.44,653.745 1295.11,649.102C1284.77,644.459 1272.42,637.045 1258.04,626.86Z" style="fill:rgb(246,248,250);fill-rule:nonzero;"/>
        <path d="M1477.31,626.86L1449,688.419C1461.59,695.009 1474.17,700.7 1486.75,705.493C1499.33,710.286 1512.51,713.956 1526.29,716.502C1540.07,719.048 1554.75,720.321 1570.32,720.321C1596.98,720.321 1617.35,714.854 1631.43,703.921C1645.51,692.987 1652.55,675.238 1652.55,650.675C1652.55,637.494 1649.86,627.01 1644.46,619.222C1639.07,611.433 1632.03,605.142 1623.34,600.35C1614.66,595.557 1605.37,591.363 1595.49,587.768C1583.5,583.275 1573.84,579.98 1566.5,577.883C1559.16,575.786 1553.77,573.614 1550.33,571.368C1546.88,569.121 1545.16,566.051 1545.16,562.156C1545.16,560.06 1546.06,558.112 1547.86,556.315C1549.65,554.518 1553.25,553.619 1558.64,553.619C1567.03,553.619 1577.59,556.24 1590.32,561.482C1603.05,566.725 1614.51,573.689 1624.69,582.376L1646.26,522.615C1636.08,517.822 1625.89,513.629 1615.71,510.034C1605.52,506.439 1595.04,503.519 1584.25,501.272C1573.47,499.025 1561.79,497.902 1549.2,497.902C1532.13,497.902 1517.38,500.298 1504.94,505.091C1492.51,509.884 1482.85,516.849 1475.96,525.985C1469.07,535.122 1465.63,546.13 1465.63,559.011C1465.63,572.791 1468.33,584.024 1473.72,592.711C1479.11,601.398 1486.22,608.213 1495.06,613.156C1503.9,618.098 1513.41,622.217 1523.59,625.512C1536.47,629.406 1545.91,632.627 1551.9,635.173C1557.89,637.719 1561.71,640.041 1563.36,642.137C1565.01,644.234 1565.83,646.631 1565.83,649.327C1565.83,652.322 1564.86,654.794 1562.91,656.741C1560.96,658.688 1557.59,659.661 1552.8,659.661C1550.4,659.661 1545.98,659.062 1539.54,657.864C1533.1,656.666 1524.72,653.745 1514.38,649.102C1504.05,644.459 1491.69,637.045 1477.31,626.86Z" style="fill:rgb(246,248,250);fill-rule:nonzero;"/>
    </g>
</svg>
