<?xml version="1.0" encoding="UTF-8" standalone="no"?>
<!DOCTYPE svg PUBLIC "-//W3C//DTD SVG 1.1//EN" "http://www.w3.org/Graphics/SVG/1.1/DTD/svg11.dtd">
<svg width="100%" height="100%" viewBox="0 0 100 100" version="1.1" xmlns="http://www.w3.org/2000/svg" xmlns:xlink="http://www.w3.org/1999/xlink" xml:space="preserve" xmlns:serif="http://www.serif.com/" style="fill-rule:evenodd;clip-rule:evenodd;stroke-linejoin:round;stroke-miterlimit:2;">
    <g transform="matrix(1,0,0,1,-100,-100)">
        <g transform="matrix(0.920863,0,0,1.00946,100.578,-0.946121)">
            <rect id="Bishop" x="-0.628" y="100" width="108.594" height="99.063" style="fill:none;"/>
            <g id="Bishop1" serif:id="Bishop">
                <g transform="matrix(1.08594,0,0,0.990627,-0.628158,100)">
                    <path d="M25.23,70.756C22.85,66.356 21.279,60.859 21.279,53.995C21.279,49.394 23.022,44.287 25.733,39.257C29.121,32.972 34,26.77 38.337,21.869C37.406,20.068 36.881,18.025 36.881,15.859C36.881,8.618 42.759,2.74 50,2.74C57.241,2.74 63.119,8.618 63.119,15.859C63.119,15.933 63.119,16.006 63.118,16.079C63.1,17.256 62.743,18.404 62.093,19.374C55.743,28.927 52.294,40.224 52.304,51.793L52.315,51.793C53.791,51.791 55.578,51.774 57.065,51.76C57.065,51.752 57.065,51.743 57.065,51.735C57.104,45.151 58.346,38.67 60.666,32.6C60.67,32.59 60.674,32.579 60.678,32.569C61.35,30.869 62.897,29.672 64.712,29.449C66.526,29.226 68.317,30.012 69.38,31.499L69.383,31.503C74.589,38.804 78.721,47.002 78.721,53.995C78.721,60.859 77.15,66.356 74.77,70.756C77.335,71.738 80.846,73.43 83.29,75.929C85.284,77.967 86.605,80.505 86.605,83.555L86.605,93.607C86.605,95.264 85.262,96.607 83.605,96.607L16.395,96.607C14.738,96.607 13.395,95.264 13.395,93.607L13.395,83.555C13.395,80.505 14.716,77.967 16.71,75.929C19.154,73.43 22.665,71.738 25.23,70.756Z" style="fill:rgb(10,12,17);"/>
                </g>
                <g transform="matrix(1.08594,0,0,0.990627,-109.222,0.937253)">
                    <path d="M128.169,169.866C125.83,165.757 124.279,160.558 124.279,153.995C124.279,143.588 134.536,130.447 142.096,122.175C140.71,120.444 139.881,118.248 139.881,115.859C139.881,110.274 144.415,105.74 150,105.74C155.585,105.74 160.119,110.274 160.119,115.859C160.119,115.918 160.119,115.976 160.118,116.034C160.109,116.633 159.927,117.216 159.595,117.713C152.912,127.768 149.286,139.659 149.304,151.839C149.324,153.487 150.673,154.809 152.321,154.793C153.803,154.791 155.599,154.774 157.094,154.76C158.742,154.744 160.069,153.401 160.065,151.753C160.101,145.531 161.276,139.407 163.468,133.671C163.736,132.993 164.354,132.515 165.078,132.426C165.801,132.337 166.516,132.651 166.94,133.244C171.757,140 175.721,147.525 175.721,153.995C175.721,160.558 174.17,165.757 171.831,169.866C165.786,168.436 157.033,168.297 150,168.297C142.967,168.297 134.214,168.436 128.169,169.866ZM129.904,172.54C135.643,171.359 143.575,171.297 150,171.297C156.425,171.297 164.357,171.359 170.096,172.54C171.37,172.802 172.536,173.119 173.553,173.503C177.299,174.916 183.605,178.007 183.605,183.555L183.605,193.607L116.395,193.607L116.395,183.555C116.395,178.007 122.701,174.916 126.447,173.503C127.464,173.119 128.63,172.802 129.904,172.54Z" style="fill:rgb(62,67,81);"/>
                </g>
            </g>
        </g>
    </g>
</svg>
