<?xml version="1.0" encoding="UTF-8" standalone="no"?>
<!DOCTYPE svg PUBLIC "-//W3C//DTD SVG 1.1//EN" "http://www.w3.org/Graphics/SVG/1.1/DTD/svg11.dtd">
<svg width="100%" height="100%" viewBox="0 0 100 100" version="1.1" xmlns="http://www.w3.org/2000/svg" xmlns:xlink="http://www.w3.org/1999/xlink" xml:space="preserve" xmlns:serif="http://www.serif.com/" style="fill-rule:evenodd;clip-rule:evenodd;stroke-linejoin:round;stroke-miterlimit:2;">
    <g transform="matrix(1,0,0,1,-200,-100)">
        <g transform="matrix(0.996722,0,0,1,0.502944,0)">
            <rect id="Knight" x="200.153" y="100" width="100.329" height="100" style="fill:none;"/>
            <g id="Knight1" serif:id="Knight">
                <g transform="matrix(1.00329,0,0,1,200.153,100)">
                    <path d="M38.97,10.606L38.973,10.605C39.228,10.534 39.483,10.466 39.737,10.4C40.823,8.764 41.862,6.772 43.221,5.159C44.668,3.441 46.428,2.101 48.678,1.519C48.682,1.518 48.687,1.517 48.691,1.516C49.989,1.187 51.364,1.399 52.502,2.104C53.519,2.734 54.269,3.708 54.619,4.84C55.408,6.435 56.809,8.289 57.946,10.126C81.044,15.57 96.647,43.026 79.98,73.332C83.513,75.616 86.605,79.03 86.605,83.555L86.605,93.607C86.605,95.264 85.262,96.607 83.605,96.607L16.395,96.607C14.738,96.607 13.395,95.264 13.395,93.607L13.395,83.555C13.395,80.505 14.716,77.967 16.71,75.929C19.023,73.564 22.293,71.921 24.811,70.919C27.794,63.912 32.488,58.888 37.198,54.684C33.202,56.383 29.377,57.179 26.502,56.999C24.864,56.896 23.972,56.352 22.237,56.318C20.905,56.291 20.073,56.907 18.114,58.277C17.034,59.032 15.742,59.229 14.285,58.611C13.118,58.116 11.522,56.625 10.099,54.525C8.422,52.05 6.805,48.749 6.065,46.417C5.597,44.945 5.486,43.715 5.595,42.973C5.66,42.523 5.469,42.31 5.443,42.082C5.371,41.478 5.402,40.868 5.661,40.14C5.865,39.57 6.268,38.811 7.244,37.764C8.594,36.315 11.553,33.761 17.877,28.629C21.782,25.461 22.972,22.476 24.134,20.131C25.273,17.834 26.458,16.008 28.65,14.684C30.918,13.316 34.96,11.506 38.97,10.606Z" style="fill:rgb(10,12,17);"/>
                </g>
                <g transform="matrix(1.00329,0,0,1,-0.504598,0)">
                    <path d="M239.703,113.516C240.317,113.344 240.929,113.189 241.54,113.05C243.684,110.196 245.367,105.473 249.429,104.424C249.937,104.295 250.477,104.378 250.923,104.655C251.369,104.931 251.684,105.377 251.795,105.89C252.744,107.927 254.755,110.423 256.022,112.78C278.154,117.121 293.099,143.178 277.358,171.871C276.383,171.4 275.444,171.01 274.612,170.696C268.758,168.487 258.207,168.297 250,168.297C243.161,168.297 234.694,168.429 228.674,169.751C237.419,152.847 257.026,149.134 253.771,135.298C249.022,146.86 234.227,154.477 226.69,154.005C225.003,153.899 224.082,153.353 222.296,153.318C220.425,153.281 219.145,153.895 216.395,155.818C214.197,157.355 208.194,145.938 208.563,143.406C208.999,140.417 205.155,142.815 219.768,130.959C227.062,125.04 226.018,119.777 230.2,117.253C232.286,115.995 236.016,114.332 239.703,113.516ZM283.605,183.555L283.605,193.607L216.395,193.607L216.395,183.555C216.395,178.007 222.701,174.916 226.447,173.503C232.047,171.39 242.149,171.297 250,171.297C257.851,171.297 267.953,171.39 273.553,173.503C277.299,174.916 283.605,178.007 283.605,183.555Z" style="fill:rgb(62,67,81);"/>
                </g>
                <g transform="matrix(1.00329,2.77556e-17,0,1,197.24,91.6466)">
                    <path d="M39.703,30.959C41.352,30.634 45.234,30.698 43.823,31.854C42.682,32.789 36.363,35.316 36.154,37.437C35.989,39.105 34.906,35.454 35.773,33.859C36.574,32.387 38.059,31.283 39.703,30.959Z" style="fill:rgb(10,12,17);"/>
                </g>
            </g>
        </g>
    </g>
</svg>
