<?xml version="1.0" encoding="UTF-8" standalone="no"?>
<!DOCTYPE svg PUBLIC "-//W3C//DTD SVG 1.1//EN" "http://www.w3.org/Graphics/SVG/1.1/DTD/svg11.dtd">
<svg width="100%" height="100%" viewBox="0 0 100 100" version="1.1" xmlns="http://www.w3.org/2000/svg" xmlns:xlink="http://www.w3.org/1999/xlink" xml:space="preserve" xmlns:serif="http://www.serif.com/" style="fill-rule:evenodd;clip-rule:evenodd;stroke-linejoin:round;stroke-miterlimit:2;">
    <g transform="matrix(1,0,0,1.13873,-100.153,100)">
        <rect id="Pawn" x="100.153" y="-87.817" width="100" height="87.817" style="fill:none;"/>
        <g id="Pawn1" serif:id="Pawn">
            <g transform="matrix(1,0,0,0.878168,100.153,-87.8168)">
                <path d="M34.399,50.397C32.759,50.129 31.287,49.188 30.357,47.776L28.853,45.492C27.971,44.153 27.662,42.516 27.995,40.948C28.327,39.379 29.274,38.009 30.624,37.143C30.624,37.143 34.905,34.395 34.905,34.395C32.661,31.314 31.337,27.521 31.337,23.422C31.337,13.121 39.699,4.758 50,4.758C60.301,4.758 68.663,13.121 68.663,23.422C68.663,27.521 67.339,31.314 65.095,34.395L69.376,37.143C70.726,38.009 71.673,39.379 72.005,40.948C72.338,42.516 72.029,44.153 71.147,45.492L69.643,47.776C68.713,49.188 67.241,50.129 65.601,50.397C67.279,55.424 70.566,64.411 74.481,70.647C74.525,70.663 74.569,70.679 74.612,70.696C77.189,71.668 80.796,73.378 83.29,75.929C85.284,77.967 86.605,80.505 86.605,83.555L86.605,93.607C86.605,95.264 85.262,96.607 83.605,96.607L16.395,96.607C14.738,96.607 13.395,95.264 13.395,93.607L13.395,83.555C13.395,80.505 14.716,77.967 16.71,75.929C19.204,73.378 22.811,71.668 25.388,70.696C25.431,70.679 25.475,70.663 25.519,70.647C29.434,64.41 32.721,55.424 34.399,50.397Z" style="fill:rgb(10,12,17);"/>
            </g>
            <g transform="matrix(1,0,0,0.878168,100.153,-87.8168)">
                <path d="M37.527,50.476L62.473,50.476C63.896,54.804 66.804,62.999 70.377,69.556C64.438,68.416 56.487,68.297 50,68.297C43.513,68.297 35.562,68.416 29.623,69.556C33.196,62.999 36.104,54.804 37.527,50.476ZM27.471,73.153C33.218,71.379 42.607,71.297 50,71.297C57.393,71.297 66.782,71.379 72.529,73.153C72.885,73.263 73.227,73.379 73.553,73.503C77.299,74.916 83.605,78.007 83.605,83.555L83.605,93.607L16.395,93.607L16.395,83.555C16.395,78.007 22.701,74.916 26.447,73.503C26.773,73.379 27.115,73.263 27.471,73.153ZM64.632,47.476L35.368,47.476C34.359,47.476 33.417,46.969 32.862,46.126L31.359,43.842C30.918,43.173 30.763,42.354 30.929,41.57C31.096,40.786 31.569,40.101 32.244,39.668L36.881,36.692C40.253,40.026 44.888,42.085 50,42.085C55.112,42.085 59.747,40.026 63.119,36.692L67.756,39.668C68.431,40.101 68.904,40.786 69.071,41.57C69.237,42.354 69.082,43.173 68.641,43.842L67.138,46.126C66.583,46.969 65.641,47.476 64.632,47.476ZM37.435,32.771C35.489,30.161 34.337,26.925 34.337,23.422C34.337,14.777 41.355,7.758 50,7.758C58.645,7.758 65.663,14.777 65.663,23.422C65.663,26.925 64.511,30.161 62.565,32.771C61.957,33.587 61.271,34.341 60.519,35.023C57.738,37.547 54.047,39.085 50,39.085C45.953,39.085 42.262,37.547 39.481,35.023C38.729,34.341 38.043,33.587 37.435,32.771Z" style="fill:rgb(62,67,81);"/>
            </g>
        </g>
    </g>
</svg>
